<svg xmlns="http://www.w3.org/2000/svg" viewBox="0 0 116.52 116.52"><g id="Layer_2" data-name="Layer 2"><g id="Logo_Unikname_variantes" data-name="Logo Unikname variantes"><g id="logo_circled_pink_white" data-name="logo circled pink white"><circle cx="58.26" cy="58.26" r="58.26" fill="#c605c7"/><path d="M83.57,35.76a.66.66,0,0,0-.65-.65h-9a.65.65,0,0,0-.65.65V68.58c0,.39,0,.76,0,1.14s0,.54-.07.81c0,.09,0,.18,0,.27a15.15,15.15,0,0,1-4.5,8.66,15.21,15.21,0,0,1-21.76,0,15.15,15.15,0,0,1-4.5-8.66c0-.09,0-.18,0-.27,0-.27-.05-.54-.07-.81s-.05-.75-.05-1.14V35.76a.65.65,0,0,0-.65-.65h-9a.65.65,0,0,0-.65.65V68.58c0,.18,0,.36,0,.54a.27.27,0,0,0,0,.13c0,.48.05.94.09,1.41,0,.23,0,.46,0,.69.07.68.17,1.34.28,2,0,.15.05.31.07.46q.21,1.06.51,2.1c0,.1,0,.2.08.3.2.67.43,1.33.69,2l.14.39c.21.51.46,1,.71,1.51.13.27.25.54.39.8s.27.45.41.68a26.26,26.26,0,0,0,4.12,5.36,25,25,0,0,0,18.27,7.54h.14A25,25,0,0,0,76,86.92a26.26,26.26,0,0,0,4.12-5.36c.14-.23.28-.45.41-.68s.26-.53.39-.8c.25-.5.5-1,.71-1.51l.14-.39c.26-.64.49-1.3.69-2,0-.1.05-.2.08-.3q.3-1,.51-2.1c0-.15,0-.31.07-.46.11-.66.21-1.32.28-2,0-.23,0-.46,0-.69,0-.47.09-.93.1-1.41a.5.5,0,0,0,0-.13c0-.18,0-.36,0-.54Z" fill="#fff"/><path d="M65.69,42.8V59.37a1,1,0,0,1-.33.75l-14,12.59A1,1,0,0,1,49.69,72V55.39a1,1,0,0,1,.33-.75L64,42.05A1,1,0,0,1,65.69,42.8Z" fill="#fff"/></g></g></g></svg>