<svg width="29" height="29" viewBox="0 0 29 29" fill="none" xmlns="http://www.w3.org/2000/svg">
<path d="M16.7728 14.1869L15.7394 14.7451L16.8579 15.1031C20.1084 16.1434 22.4927 19.0071 22.5 22.4767C22.4794 22.4869 22.4397 22.5 22.3834 22.5C22.3271 22.5 22.2874 22.4869 22.2668 22.4767C22.258 18.3059 18.767 14.8881 14.456 14.8881C10.1414 14.8881 6.64835 18.3114 6.64508 22.4867C6.63173 22.4925 6.60745 22.5 6.57254 22.5C6.53764 22.5 6.51336 22.4925 6.5 22.4867C6.50259 19.0046 8.80866 16.1418 12.054 15.1031L13.1725 14.7451L12.1392 14.1869C10.9013 13.5184 10.1114 12.171 10.1114 10.6517C10.1114 8.33072 12.0642 6.5 14.456 6.5C16.9418 6.5 18.8886 8.33639 18.8886 10.6517C18.8886 12.1526 18.0267 13.5097 16.7728 14.1869ZM14.456 6.5995C12.1732 6.5995 10.2565 8.41138 10.2565 10.6517C10.2565 12.8921 12.1732 14.704 14.456 14.704C16.8189 14.704 18.7435 12.8996 18.7435 10.6517C18.7435 8.40391 16.8189 6.5995 14.456 6.5995Z" fill="white" stroke="#FFFFFF"/>
</svg>
