<svg width="29" height="29" viewBox="0 0 29 29" fill="none" xmlns="http://www.w3.org/2000/svg">
<rect x="6.5" y="7.5" width="15.4333" height="15.4333" stroke="#FFFFFF"/>
<rect x="8.87592" y="17.8684" width="0.821667" height="1.41924" fill="white" stroke="#FFFFFF" stroke-width="0.821667"/>
<rect x="12.7518" y="18.4576" width="2.93" height="3.22879" fill="white" stroke="#FFFFFF" stroke-width="2"/>
<rect x="18.7358" y="17.8684" width="0.821667" height="1.41924" fill="white" stroke="#FFFFFF" stroke-width="0.821667"/>
<rect x="8.87592" y="14.1336" width="0.821667" height="1.41924" fill="white" stroke="#FFFFFF" stroke-width="0.821667"/>
<rect x="12.1626" y="14.1336" width="0.821667" height="1.41924" fill="white" stroke="#FFFFFF" stroke-width="0.821667"/>
<rect x="15.4492" y="14.1336" width="0.821667" height="1.41924" fill="white" stroke="#FFFFFF" stroke-width="0.821667"/>
<rect x="18.7358" y="14.1336" width="0.821667" height="1.41924" fill="white" stroke="#FFFFFF" stroke-width="0.821667"/>
<rect x="8.87586" y="10.3987" width="0.821667" height="1.41924" fill="white" stroke="#FFFFFF" stroke-width="0.821667"/>
<rect x="12.1626" y="10.3987" width="0.821667" height="1.41924" fill="white" stroke="#FFFFFF" stroke-width="0.821667"/>
<rect x="15.4492" y="10.3987" width="0.821667" height="1.41924" fill="white" stroke="#FFFFFF" stroke-width="0.821667"/>
<rect x="18.7358" y="10.3987" width="0.821667" height="1.41924" fill="white" stroke="#FFFFFF" stroke-width="0.821667"/>
<path d="M0 0V-1H-1V0H0ZM29 0H30V-1H29V0ZM29 29V30H30V29H29ZM0 29H-1V30H0V29ZM0 1H29V-1H0V1ZM28 0V29H30V0H28ZM29 28H0V30H29V28ZM1 29V0H-1V29H1Z" fill="none"/>
</svg>
